<svg xmlns="http://www.w3.org/2000/svg" viewBox="0 0 48 48">
  <path fill="#07C160" d="M18.6 4C10.3 4 4 9.4 4 16.1c0 3.8 2.1 7.1 5.4 9.4L8 29.2l4.1-2.1c1.4.4 2.9.7 4.5.8-.2-.8-.3-1.6-.3-2.4 0-6.2 5.9-11.2 13.1-11.2.4 0 .8 0 1.2 0C29.6 8.3 24.5 4 18.6 4zm-4.8 7.6a1.9 1.9 0 1 1 0 3.8 1.9 1.9 0 0 1 0-3.8zm9.6 0a1.9 1.9 0 1 1 0 3.8 1.9 1.9 0 0 1 0-3.8z"/>
  <path fill="#07C160" d="M44 25.5c0-5.8-5.2-10.5-11.6-10.5s-11.6 4.7-11.6 10.5S26 36 32.4 36c1.3 0 2.6-.2 3.8-.6L39.9 37.5l-1.3-3.4c3.1-1.6 5.4-4.6 5.4-8.6zm-15.5-2.9a1.7 1.7 0 1 1 0 3.5 1.7 1.7 0 0 1 0-3.5zm7.8 0a1.7 1.7 0 1 1 0 3.5 1.7 1.7 0 0 1 0-3.5z"/>
</svg>
